<svg width="220" height="27" viewBox="0 0 220 27" fill="none" xmlns="http://www.w3.org/2000/svg">
<path d="M7.665 6.995H0.14V1.5H22.085V6.995H14.595V26H7.665V6.995ZM41.1277 16.55C41.1277 16.5967 41.0927 17.145 41.0227 18.195H27.2327C27.5127 19.175 28.0494 19.9333 28.8427 20.47C29.6594 20.9833 30.6744 21.24 31.8877 21.24C32.7977 21.24 33.5794 21.1117 34.2327 20.855C34.9094 20.5983 35.5861 20.1783 36.2627 19.595L39.7627 23.235C37.9194 25.2883 35.2244 26.315 31.6777 26.315C29.4611 26.315 27.5127 25.895 25.8327 25.055C24.1527 24.215 22.8461 23.0483 21.9127 21.555C21.0027 20.0617 20.5477 18.37 20.5477 16.48C20.5477 14.6133 20.9911 12.945 21.8777 11.475C22.7877 9.98167 24.0361 8.815 25.6227 7.975C27.2094 7.135 28.9944 6.715 30.9777 6.715C32.8677 6.715 34.5827 7.11167 36.1227 7.905C37.6627 8.675 38.8761 9.80667 39.7627 11.3C40.6727 12.77 41.1277 14.52 41.1277 16.55ZM31.0127 11.44C29.9861 11.44 29.1227 11.7317 28.4227 12.315C27.7461 12.8983 27.3144 13.6917 27.1277 14.695H34.8977C34.7111 13.6917 34.2677 12.8983 33.5677 12.315C32.8911 11.7317 32.0394 11.44 31.0127 11.44ZM43.4938 0.0299985H50.1438V26H43.4938V0.0299985ZM73.7155 7.03V26H67.3805V23.97C66.6805 24.74 65.8405 25.3233 64.8605 25.72C63.8805 26.1167 62.8421 26.315 61.7455 26.315C59.2955 26.315 57.3355 25.5917 55.8655 24.145C54.4188 22.6983 53.6955 20.5283 53.6955 17.635V7.03H60.3455V16.55C60.3455 17.9733 60.6138 19.0117 61.1505 19.665C61.6871 20.3183 62.4688 20.645 63.4955 20.645C64.5455 20.645 65.3971 20.2833 66.0505 19.56C66.7271 18.8133 67.0655 17.6817 67.0655 16.165V7.03H73.7155ZM85.9089 19.35L83.9489 21.345V26H77.2989V0.0299985H83.9489V13.645L90.7389 7.03H98.6139L90.7389 15.15L99.2789 26H91.2289L85.9089 19.35ZM106.263 26.49C104.466 26.49 102.833 26.1867 101.363 25.58C99.893 24.95 98.6913 24.0517 97.758 22.885L101.538 18.405C102.845 20.1083 104.256 20.96 105.773 20.96C106.776 20.96 107.535 20.6567 108.048 20.05C108.585 19.4433 108.853 18.5567 108.853 17.39V6.855H100.383V1.5H115.713V16.97C115.713 20.1433 114.908 22.5233 113.298 24.11C111.711 25.6967 109.366 26.49 106.263 26.49ZM127.46 6.715C130.61 6.715 133.014 7.43833 134.67 8.885C136.327 10.3083 137.155 12.5017 137.155 15.465V26H130.96V23.55C130.004 25.3933 128.137 26.315 125.36 26.315C123.89 26.315 122.619 26.0583 121.545 25.545C120.472 25.0317 119.655 24.3433 119.095 23.48C118.559 22.5933 118.29 21.59 118.29 20.47C118.29 18.6733 118.979 17.285 120.355 16.305C121.732 15.3017 123.855 14.8 126.725 14.8H130.505C130.389 12.7933 129.047 11.79 126.48 11.79C125.57 11.79 124.649 11.9417 123.715 12.245C122.782 12.525 121.989 12.9217 121.335 13.435L119.095 8.92C120.145 8.22 121.417 7.68333 122.91 7.31C124.427 6.91333 125.944 6.715 127.46 6.715ZM127.215 22.115C127.985 22.115 128.662 21.9283 129.245 21.555C129.829 21.1817 130.249 20.6333 130.505 19.91V18.265H127.635C125.699 18.265 124.73 18.9067 124.73 20.19C124.73 20.7733 124.952 21.24 125.395 21.59C125.839 21.94 126.445 22.115 127.215 22.115ZM165.363 6.715C167.696 6.715 169.551 7.415 170.928 8.815C172.328 10.215 173.028 12.3267 173.028 15.15V26H166.378V16.235C166.378 14.905 166.121 13.925 165.608 13.295C165.118 12.665 164.418 12.35 163.508 12.35C162.505 12.35 161.7 12.7 161.093 13.4C160.486 14.1 160.183 15.1617 160.183 16.585V26H153.533V16.235C153.533 13.645 152.576 12.35 150.663 12.35C149.636 12.35 148.82 12.7 148.213 13.4C147.606 14.1 147.303 15.1617 147.303 16.585V26H140.653V7.03H146.988V9.025C147.688 8.255 148.516 7.68333 149.473 7.31C150.453 6.91333 151.515 6.715 152.658 6.715C153.988 6.715 155.178 6.96 156.228 7.45C157.278 7.94 158.13 8.68667 158.783 9.69C159.53 8.73333 160.475 7.99833 161.618 7.485C162.761 6.97167 164.01 6.715 165.363 6.715ZM188.46 6.715C190.187 6.715 191.75 7.11167 193.15 7.905C194.574 8.69833 195.694 9.84167 196.51 11.335C197.35 12.805 197.77 14.52 197.77 16.48C197.77 18.44 197.35 20.1667 196.51 21.66C195.694 23.1533 194.574 24.3083 193.15 25.125C191.75 25.9183 190.187 26.315 188.46 26.315C185.964 26.315 184.097 25.58 182.86 24.11V26H176.525V0.0299985H183.175V8.675C184.459 7.36833 186.22 6.715 188.46 6.715ZM187.06 21.03C188.227 21.03 189.184 20.6333 189.93 19.84C190.677 19.0233 191.05 17.9033 191.05 16.48C191.05 15.08 190.677 13.9833 189.93 13.19C189.184 12.3967 188.227 12 187.06 12C185.894 12 184.937 12.3967 184.19 13.19C183.444 13.9833 183.07 15.08 183.07 16.48C183.07 17.9033 183.444 19.0233 184.19 19.84C184.937 20.6333 185.894 21.03 187.06 21.03ZM219.551 16.55C219.551 16.5967 219.516 17.145 219.446 18.195H205.656C205.936 19.175 206.473 19.9333 207.266 20.47C208.083 20.9833 209.098 21.24 210.311 21.24C211.221 21.24 212.003 21.1117 212.656 20.855C213.333 20.5983 214.01 20.1783 214.686 19.595L218.186 23.235C216.343 25.2883 213.648 26.315 210.101 26.315C207.885 26.315 205.936 25.895 204.256 25.055C202.576 24.215 201.27 23.0483 200.336 21.555C199.426 20.0617 198.971 18.37 198.971 16.48C198.971 14.6133 199.415 12.945 200.301 11.475C201.211 9.98167 202.46 8.815 204.046 7.975C205.633 7.135 207.418 6.715 209.401 6.715C211.291 6.715 213.006 7.11167 214.546 7.905C216.086 8.675 217.3 9.80667 218.186 11.3C219.096 12.77 219.551 14.52 219.551 16.55ZM209.436 11.44C208.41 11.44 207.546 11.7317 206.846 12.315C206.17 12.8983 205.738 13.6917 205.551 14.695H213.321C213.135 13.6917 212.691 12.8983 211.991 12.315C211.315 11.7317 210.463 11.44 209.436 11.44Z" fill="white"/>
</svg>
