<svg width="16" height="16" viewBox="0 0 16 16" fill="none" xmlns="http://www.w3.org/2000/svg">
<path d="M7.23529 1.76805C7.65438 1.76805 7.99365 2.1056 7.99365 2.52161C7.99365 2.93762 7.65438 3.27517 7.23529 3.27517H1.51673V14.4929H12.8142V8.78185C12.8142 8.36583 13.1534 8.02828 13.5725 8.02828C13.9916 8.02828 14.3309 8.36583 14.3309 8.78185V14.4929C14.3309 15.3249 13.6505 16 12.8142 16H1.51673C0.680349 16 0 15.3267 0 14.4947V3.27517C0 2.44315 0.680349 1.76805 1.51673 1.76805H7.23529ZM12.1048 1.8538L14.1567 3.91744L7.48384 10.6302C7.35684 10.7579 7.19175 10.84 7.01395 10.8637L4.92029 11.1429L5.19787 9.03729C5.22145 8.85848 5.3031 8.69244 5.43009 8.56472L12.1048 1.8538ZM13.7086 0.240848C14.0279 -0.0802828 14.545 -0.0802828 14.8625 0.240848L15.7605 1.14403C16.0798 1.46516 16.0798 1.98518 15.7605 2.30448L14.926 3.1438L12.8758 1.07834L13.7086 0.240848Z" fill="black" fill-opacity="0.5"/>
</svg>
