<svg width="638" height="418" viewBox="0 0 638 418" fill="none" xmlns="http://www.w3.org/2000/svg">
<g clip-path="url(#clip0)">
<path d="M70.778 368.6C70.778 368.6 2.64752 207.68 125.163 107.564C247.678 7.44901 226.683 151.038 264.035 145.901C301.388 140.763 296.188 123.987 332.949 97.6949C354.565 82.2278 389.228 93.513 399.334 132.058C409.44 170.604 437.649 169.325 460.359 133.343C483.069 97.3604 508.134 76.8212 531.203 101.226C554.271 125.63 565.561 168.023 578.625 165.454C591.689 162.885 558.467 107.26 572.649 99.6007C583.621 93.6683 622.139 100.258 632.699 143.81C642.895 185.868 597.062 256.124 599.608 300.709C602.154 345.295 607.013 332.295 614.848 358.659L70.778 368.6Z" fill="#F1FAF2"/>
<path d="M21.4013 413C21.4013 413 -55.8012 241.714 83.0654 135.153C221.932 28.5916 198.122 181.423 240.429 175.957C282.735 170.49 276.885 152.657 318.528 124.644C343.031 108.18 382.313 120.2 393.764 161.218C405.215 202.237 437.2 200.875 462.929 162.586C488.657 124.298 517.074 102.426 543.215 128.402C569.356 154.378 582.163 199.495 596.966 196.771C611.77 194.046 609.403 136.605 615.373 136.605C621.344 136.605 640.289 123.42 637.773 169.421C635.257 215.422 617.848 293.254 620.728 340.724C623.609 388.195 629.125 374.341 638 402.396L21.4013 413Z" fill="#E6F7E7"/>
<path d="M21.4013 413C21.4013 413 39.6233 316.678 128.073 316.678C216.523 316.678 240.429 413 240.429 413H21.4013Z" fill="#F1FAF2"/>
<path d="M181.508 411.393C181.508 411.393 199.742 254.236 288.162 254.236C376.582 254.236 400.517 411.393 400.517 411.393H181.508Z" fill="#F1FAF2"/>
<path d="M393.77 402.396C393.77 402.396 412.004 270.809 500.4 270.809C588.797 270.809 612.756 402.396 612.756 402.396H393.77Z" fill="#F1FAF2"/>
<path d="M303.312 402.396C303.312 402.396 321.546 266.931 409.96 266.931C498.374 266.931 522.346 402.396 522.346 402.396H303.312Z" fill="#C7F2CF"/>
</g>
<g clip-path="url(#clip1)">
<g clip-path="url(#clip2)">
<path d="M73 247L259 14L469 237L73 247Z" fill="#B3D7D5"/>
<path d="M121.5 246.5V412.5L440.5 416.5V237.5H108.5V245.5L121.5 246.5Z" fill="#D4EDD7"/>
<path d="M531 307V398H440.5L440 237H469L531 307Z" fill="#C9E3CC"/>
<path d="M215 267H194V322H215V267Z" fill="#AFD4D2"/>
<path d="M239 267H218V322H239V267Z" fill="#AFD4D2"/>
<path d="M298 267H277V322H298V267Z" fill="#AFD4D2"/>
<path d="M363 267H342V322H363V267Z" fill="#AFD4D2"/>
<path d="M339 270H301V319H339V270Z" fill="#AFD4D2"/>
<path d="M336 273H303V316H336V273Z" fill="white"/>
<path d="M320 273H319V317H320V273Z" fill="#95B2B5"/>
<path d="M73 247L259 14L531 307L538 300L259 0L68 243L73 247Z" fill="#D4EDD7"/>
<path d="M259 0L368 81L582 301H538L259 0Z" fill="#B3D7D5"/>
<path d="M531 307H578L582 301H538L531 307Z" fill="#95B2B5"/>
<path d="M123.8 339.15C126.5 339.18 128.66 341.4 128.62 344.1L127.84 407.24C127.81 409.94 125.59 412.1 122.89 412.07C120.19 412.04 118.03 409.82 118.07 407.12L118.85 343.98C118.89 341.28 121.1 339.12 123.8 339.15Z" fill="#AFD4D2"/>
<path d="M140.5 339.36C143.2 339.39 145.36 341.61 145.32 344.31L144.54 407.45C144.51 410.15 142.29 412.31 139.59 412.28C136.89 412.25 134.73 410.03 134.77 407.33L135.55 344.19C135.59 341.49 137.8 339.33 140.5 339.36Z" fill="#AFD4D2"/>
<path d="M158.39 339.58C161.09 339.61 163.25 341.83 163.21 344.53L162.43 407.67C162.4 410.37 160.18 412.53 157.48 412.5C154.78 412.47 152.62 410.25 152.66 407.55L153.44 344.41C153.48 341.71 155.7 339.55 158.39 339.58Z" fill="#AFD4D2"/>
<path d="M176.28 339.81C178.98 339.84 181.14 342.06 181.1 344.76L180.32 407.9C180.29 410.6 178.07 412.76 175.37 412.73C172.67 412.7 170.51 410.48 170.55 407.78L171.33 344.64C171.37 341.93 173.58 339.77 176.28 339.81Z" fill="#AFD4D2"/>
<path d="M193.89 340.02C196.59 340.05 198.75 342.27 198.71 344.97L197.93 408.11C197.9 410.81 195.68 412.97 192.98 412.94C190.28 412.91 188.12 410.69 188.16 407.99L188.94 344.85C188.97 342.15 191.19 339.99 193.89 340.02Z" fill="#AFD4D2"/>
<path d="M212.14 340.25C214.84 340.28 217 342.5 216.96 345.2L216.18 408.34C216.15 411.04 213.93 413.2 211.23 413.17C208.53 413.14 206.37 410.92 206.41 408.22L207.19 345.08C207.23 342.38 209.44 340.22 212.14 340.25Z" fill="#AFD4D2"/>
<path d="M228.83 340.46C231.53 340.49 233.69 342.71 233.65 345.41L232.87 408.55C232.84 411.25 230.62 413.41 227.92 413.38C225.22 413.35 223.06 411.13 223.1 408.43L223.88 345.29C223.92 342.58 226.13 340.42 228.83 340.46Z" fill="#AFD4D2"/>
<path d="M246.72 340.68C249.42 340.71 251.58 342.93 251.54 345.63L250.76 408.77C250.73 411.47 248.51 413.63 245.81 413.6C243.11 413.57 240.95 411.35 240.99 408.65L241.77 345.51C241.81 342.81 244.03 340.64 246.72 340.68Z" fill="#AFD4D2"/>
<path d="M264.61 340.9C267.31 340.93 269.47 343.15 269.43 345.85L268.65 408.99C268.62 411.69 266.4 413.85 263.7 413.82C261 413.79 258.84 411.57 258.88 408.87L259.66 345.73C259.7 343.03 261.91 340.87 264.61 340.9Z" fill="#AFD4D2"/>
<path d="M282.22 341.12C284.92 341.15 287.08 343.37 287.04 346.07L286.26 409.21C286.23 411.91 284.01 414.07 281.31 414.04C278.61 414.01 276.45 411.79 276.49 409.09L277.27 345.95C277.3 343.25 279.52 341.08 282.22 341.12Z" fill="#AFD4D2"/>
<path d="M301.15 341.36C303.85 341.39 306.01 343.61 305.97 346.31L305.19 409.45C305.16 412.15 302.94 414.31 300.24 414.28C297.54 414.25 295.38 412.03 295.42 409.33L296.2 346.19C296.24 343.49 298.45 341.33 301.15 341.36Z" fill="#AFD4D2"/>
<path d="M317.85 341.56C320.55 341.59 322.71 343.81 322.67 346.51L321.89 409.65C321.86 412.35 319.64 414.51 316.94 414.48C314.24 414.45 312.08 412.23 312.12 409.53L312.9 346.39C312.94 343.69 315.15 341.53 317.85 341.56Z" fill="#AFD4D2"/>
<path d="M335.74 341.79C338.44 341.82 340.6 344.04 340.56 346.74L339.78 409.88C339.75 412.58 337.53 414.74 334.83 414.71C332.13 414.68 329.97 412.46 330.01 409.76L330.79 346.62C330.83 343.92 333.05 341.76 335.74 341.79Z" fill="#AFD4D2"/>
<path d="M353.62 342C356.32 342.03 358.48 344.25 358.44 346.95L357.66 410.09C357.63 412.79 355.41 414.95 352.71 414.92C350.01 414.89 347.85 412.67 347.89 409.97L348.67 346.83C348.71 344.13 350.92 341.97 353.62 342Z" fill="#AFD4D2"/>
<path d="M371.23 342.23C373.93 342.26 376.09 344.48 376.05 347.18L375.27 410.32C375.24 413.02 373.02 415.18 370.32 415.15C367.62 415.12 365.46 412.9 365.5 410.2L366.28 347.06C366.32 344.36 368.54 342.2 371.23 342.23Z" fill="#AFD4D2"/>
<path d="M389.48 342.45C392.18 342.48 394.34 344.7 394.3 347.4L393.52 410.54C393.49 413.24 391.27 415.4 388.57 415.37C385.87 415.34 383.71 413.12 383.75 410.42L384.53 347.28C384.57 344.58 386.78 342.41 389.48 342.45Z" fill="#AFD4D2"/>
<path d="M406.19 342.65C408.89 342.68 411.05 344.9 411.01 347.6L410.23 410.74C410.2 413.44 407.98 415.6 405.28 415.57C402.58 415.54 400.42 413.32 400.46 410.62L401.24 347.48C401.27 344.78 403.49 342.62 406.19 342.65Z" fill="#AFD4D2"/>
<path d="M424.07 342.88C426.77 342.91 428.93 345.13 428.89 347.83L428.11 410.97C428.08 413.67 425.86 415.83 423.16 415.8C420.46 415.77 418.3 413.55 418.34 410.85L419.12 347.71C419.16 345 421.37 342.84 424.07 342.88Z" fill="#AFD4D2"/>
<path d="M441.96 343.11C444.66 343.14 446.82 345.36 446.78 348.06L446 411.19C445.97 413.89 443.75 416.05 441.05 416.02C438.35 415.99 436.19 413.77 436.23 411.07L437.01 347.93C437.05 345.24 439.26 343.07 441.96 343.11Z" fill="#AFD4D2"/>
<path d="M459.56 343.33C462.26 343.36 464.42 345.58 464.38 348.28L463.6 411.42C463.57 414.12 461.35 416.28 458.65 416.25C455.95 416.22 453.79 414 453.83 411.3L454.61 348.16C454.65 345.45 456.87 343.29 459.56 343.33Z" fill="#AFD4D2"/>
<path d="M477.85 343.54C480.55 343.57 482.71 345.79 482.67 348.49L481.89 411.63C481.86 414.33 479.64 416.49 476.94 416.46C474.24 416.43 472.08 414.21 472.12 411.51L472.9 348.37C472.94 345.67 475.15 343.51 477.85 343.54Z" fill="#AFD4D2"/>
<path d="M496.12 343.77C498.82 343.8 500.98 346.02 500.94 348.72L500.16 411.86C500.13 414.56 497.91 416.72 495.21 416.69C492.51 416.66 490.35 414.44 490.39 411.74L491.17 348.6C491.2 345.9 493.42 343.73 496.12 343.77Z" fill="#AFD4D2"/>
<path d="M512.8 343.98C515.5 344.01 517.66 346.23 517.62 348.93L516.84 412.07C516.81 414.77 514.59 416.93 511.89 416.9C509.19 416.87 507.03 414.65 507.07 411.95L507.85 348.81C507.89 346.11 510.1 343.95 512.8 343.98Z" fill="#AFD4D2"/>
<path d="M530.69 344.2C533.39 344.23 535.55 346.45 535.51 349.15L534.73 412.29C534.7 414.99 532.48 417.15 529.78 417.12C527.08 417.09 524.92 414.87 524.96 412.17L525.74 349.03C525.78 346.33 527.99 344.16 530.69 344.2Z" fill="#AFD4D2"/>
<path d="M548.58 344.42C551.28 344.45 553.44 346.67 553.4 349.37L552.62 412.51C552.59 415.21 550.37 417.37 547.67 417.34C544.97 417.31 542.81 415.09 542.85 412.39L543.63 349.25C543.67 346.55 545.89 344.38 548.58 344.42Z" fill="#AFD4D2"/>
<path d="M566.18 344.64C568.88 344.67 571.04 346.89 571 349.59L570.22 412.73C570.19 415.43 567.97 417.59 565.27 417.56C562.57 417.53 560.41 415.31 560.45 412.61L561.23 349.47C561.27 346.76 563.48 344.6 566.18 344.64Z" fill="#AFD4D2"/>
<path d="M120.89 381.59L568.06 387.13C569.44 387.15 570.54 388.28 570.52 389.65C570.5 391.03 569.37 392.13 568 392.11L120.83 386.57C119.45 386.55 118.35 385.42 118.37 384.05C118.38 382.67 119.51 381.57 120.89 381.59Z" fill="#AFD4D2"/>
<path d="M121.15 360.6L568.32 366.14C569.7 366.16 570.8 367.29 570.78 368.66C570.76 370.04 569.63 371.14 568.26 371.12L121.09 365.58C119.71 365.56 118.61 364.43 118.63 363.06C118.64 361.68 119.77 360.58 121.15 360.6Z" fill="#AFD4D2"/>
<path d="M98.31 246.14H97.31V217.08L97.73 216.49L98.31 215.82V246.14Z" fill="white"/>
<path d="M118.31 237.14H117.31V192.02L117.7 191.54L118.31 190.75V237.14Z" fill="white"/>
<path d="M137.31 237.14H136.31V168.22L136.74 167.69L137.31 166.95V237.14Z" fill="white"/>
<path d="M156.31 237.14H155.31V144.42L155.75 143.87L156.31 143.17V237.14Z" fill="white"/>
<path d="M176.31 237.14H175.31V119.37L175.7 118.86L176.31 118.14V237.14Z" fill="white"/>
<path d="M195.31 237.14H194.31V95.57L194.62 95.17L195.31 94.31V237.14Z" fill="white"/>
<path d="M215.31 237.14H214.31V70.51L214.59 70.16L215.31 69.26V237.14Z" fill="white"/>
<path d="M234.31 237.14H233.31V46.71L233.55 46.38L234.31 45.46V237.14Z" fill="white"/>
<path d="M428.31 238.14H427.31V195.09L427.97 195.82L428.31 196.19V238.14Z" fill="white"/>
<path d="M447.31 237.14H446.31V215.58L446.95 216.26L447.31 216.65V237.14Z" fill="white"/>
<path d="M408.31 237.14H407.31V173.54L407.92 174.22L408.31 174.64V237.14Z" fill="white"/>
<path d="M389.31 237.14H388.31V153.1L388.91 153.74L389.31 154.18V237.14Z" fill="white"/>
<path d="M370.31 237.14H369.31V132.63L369.56 132.89L370 133.37L370.31 133.71V237.14Z" fill="white"/>
<path d="M350.31 237.14H349.31V111.08L349.86 111.67L350.31 112.17V237.14Z" fill="white"/>
<path d="M331.31 237.14H330.31V90.6L330.81 91.16L331.31 91.7V237.14Z" fill="white"/>
<path d="M312.31 237.14H311.31V70.14L311.85 70.75L312.31 71.23V237.14Z" fill="white"/>
<path d="M293.31 237.14H292.31V49.66L292.86 50.26L293.31 50.76V237.14Z" fill="white"/>
<path d="M253.31 237.14H252.31V22.91L252.55 22.61L253.31 21.66V237.14Z" fill="white"/>
<path d="M273.31 237.14H272.31V28.14L273.31 29.14V29.11V237.14Z" fill="white"/>
<path d="M265.81 129.14C272.161 129.14 277.31 123.991 277.31 117.64C277.31 111.289 272.161 106.14 265.81 106.14C259.459 106.14 254.31 111.289 254.31 117.64C254.31 123.991 259.459 129.14 265.81 129.14Z" fill="#C9E3CC"/>
</g>
</g>
<defs>
<clipPath id="clip0">
<rect width="638" height="341" fill="white" transform="translate(0 72)"/>
</clipPath>
<clipPath id="clip1">
<rect width="514" height="417.55" fill="white" transform="translate(68)"/>
</clipPath>
<clipPath id="clip2">
<rect width="514" height="417.55" fill="white" transform="translate(68)"/>
</clipPath>
</defs>
</svg>
