<svg width="86" height="91" viewBox="0 0 86 91" fill="none" xmlns="http://www.w3.org/2000/svg">
<path d="M25.0267 0.627341C20.6495 0.632748 17.1022 4.25835 17.0974 8.73236V25.7696L3.35776 34.28C1.71922 35.3112 0.718071 37.1357 0.71167 39.1033V79.8339C0.71726 85.7799 5.4316 90.5984 11.2489 90.6049H74.9696C80.7869 90.5984 85.5009 85.7799 85.5065 79.8339V39.1033C85.5002 37.1382 84.5017 35.3153 82.8656 34.2833L69.4812 25.8407C69.4324 25.8104 69.3827 25.7828 69.3315 25.759L69.1211 25.6591V22.0929C69.1211 21.7315 68.9907 21.3831 68.7547 21.1141L51.2356 1.15168C51.2132 1.12637 51.189 1.10226 51.1651 1.07858C50.8954 0.789904 50.5218 0.627319 50.1314 0.627319C50.0778 0.627319 50.0234 0.630563 49.9698 0.637052L49.9451 0.634889C49.8971 0.629482 49.8498 0.627319 49.8018 0.627319H25.0267L25.0267 0.627341ZM25.0267 3.55743H48.6975V13.3967C48.7022 17.8707 52.25 21.4967 56.6272 21.5024H65.2432L66.2535 22.654V51.5646L43.1091 66.0211L19.9647 51.5646V8.73236C19.9671 5.87591 22.232 3.5607 25.0267 3.55743ZM51.5652 5.91664L62.6709 18.5717H56.6272C53.8325 18.5685 51.5684 16.2532 51.5652 13.3967V5.91664ZM43.0956 19.0278C34.3861 19.0278 27.3246 26.2456 27.3246 35.1478C27.3349 44.0467 34.3901 51.2579 43.0956 51.2677C51.806 51.2677 58.8664 44.0508 58.8664 35.1478C58.8664 26.2456 51.806 19.0278 43.0956 19.0278ZM43.0956 21.9589C50.2219 21.9589 55.9991 27.8639 55.9991 35.1478C55.9991 42.4325 50.2219 48.3367 43.0956 48.3367C35.9694 48.3367 30.1919 42.4325 30.1919 35.1478C30.1999 27.8672 35.9726 21.9679 43.0956 21.9589ZM69.1211 29.0579L81.3644 36.7808C82.1533 37.2772 82.6357 38.1555 82.6389 39.1033V41.3295L69.1211 49.7737V29.0579ZM17.0974 29.1962V49.7737L3.57931 41.3295V39.1033C3.58171 38.158 4.06251 37.2806 4.84897 36.7834L17.0974 29.1962ZM48.3593 30.5876C48.0473 30.5993 47.7418 30.7154 47.4942 30.9265L41.16 36.1938L38.8833 33.4682C38.5521 33.0643 38.0343 32.8735 37.5271 32.9675C37.0206 33.0623 36.6013 33.4272 36.4309 33.9244C36.2604 34.4216 36.3637 34.9735 36.7021 35.371L39.8881 39.1852C40.3938 39.7904 41.2793 39.8722 41.8834 39.3701L49.3032 33.1999C49.7072 32.8711 49.9074 32.346 49.8274 31.8251C49.7474 31.3042 49.4001 30.8667 48.9168 30.681C48.7359 30.6112 48.5465 30.5806 48.3593 30.5876V30.5876ZM3.57931 44.7639L17.543 53.487C17.691 53.6309 17.8661 53.7405 18.0589 53.8092L42.3611 68.9886C42.8203 69.2756 43.398 69.2756 43.8565 68.9886L68.1593 53.8085C68.3521 53.7398 68.5275 53.6303 68.6755 53.4863L82.6389 44.7639V79.8339C82.6349 84.1616 79.2036 87.6689 74.9696 87.6738H11.2489C7.01494 87.6684 3.58331 84.1616 3.57931 79.8339V44.7639Z" fill="black"/>
</svg>
